# xmcd CD database file generated by Grip 2.95
# 
# Track frame offsets:
#       180
#       10257
#       22955
#       35115
#       44756
#       54441
#       65605
#       73964
#       81597
#       92768
#       100402
#       112497
#       123008
#       134028
#       142573
#       152506
# 
# Disc length: 2158 seconds
# 
# Revision: 3
# Processed by: cddbd v1.4b41PL1 Copyright (c) Steve Scherf et al.
# Submitted via: Grip 2.95
# 
DISCID=e9086c10
DTITLE=Johnny Cash - I Walk the Line
DYEAR=1900
DGENRE=
TTITLE0=Hey Porter
TTITLE1=Folsom Prison Blues
TTITLE2=I Walk the Line
TTITLE3=Rock Island Line
TTITLE4=Ballard of a Teenage Queen
TTITLE5=Big River
TTITLE6=Guess Things Happen That Way
TTITLE7=Come in Stranger
TTITLE8=Oh Lonesome Me
TTITLE9=Hey Good Lookin'
TTITLE10=Goodnight Irene
TTITLE11=Cold, Cold Heart
TTITLE12=I Love You Because
TTITLE13=I Forgot to Remember To Forget
TTITLE14=The Ways of A Woman in Love
TTITLE15=Luther Played the Boogie
EXTD=
EXTT0=
EXTT1=
EXTT2=
EXTT3=
EXTT4=
EXTT5=
EXTT6=
EXTT7=
EXTT8=
EXTT9=
EXTT10=
EXTT11=
EXTT12=
EXTT13=
EXTT14=
EXTT15=
PLAYORDER=
